<svg width="40" height="40" viewBox="0 0 40 40" fill="none" xmlns="http://www.w3.org/2000/svg">
<rect width="40" height="40" rx="20" fill="#E53935"/>
<path d="M12.318 14.318C11.9001 14.7359 11.5687 15.2319 11.3425 15.7779C11.1164 16.3239 11 16.909 11 17.5C11 18.091 11.1164 18.6761 11.3425 19.2221C11.5687 19.7681 11.9001 20.2641 12.318 20.682L20 28.364L27.682 20.682C28.5259 19.8381 29 18.6935 29 17.5C29 16.3065 28.5259 15.1619 27.682 14.318C26.8381 13.4741 25.6935 13 24.5 13C23.3065 13 22.1619 13.4741 21.318 14.318L20 15.636L18.682 14.318C18.2641 13.9001 17.7681 13.5687 17.2221 13.3425C16.6761 13.1164 16.091 13 15.5 13C14.909 13 14.3239 13.1164 13.7779 13.3425C13.2319 13.5687 12.7359 13.9001 12.318 14.318Z" stroke="black" stroke-width="2" stroke-linecap="round" stroke-linejoin="round"/>
</svg>
